# xmcd CD database file
#
# Track frame offsets:
#	150
#	4855
#	19172
#	33310
#	46762
#	66242
#	66935
#	80265
#	95815
#	116040
#	116360
#	138045
#	155877
#	174690
#	201125
#
# Disc length: 4439 seconds
#
# Revision: 1
# Processed by: cddbd v1.5.2PL0 Copyright (c) Steve Scherf et al.
# Submitted via: CDex 1.70beta3
#
DISCID=ca11550f
DTITLE=PAPA B - Neo Entertainer
DYEAR=2005
DGENRE=Reggae
TTITLE0=Papa-B
TTITLE1=Neo Entertainer
TTITLE2=麗しの美女 feat, Yoyo-C
TTITLE3=Money Can't Buy -Smart Mix-
TTITLE4=風の国のランボー
TTITLE5=Interlude #1
TTITLE6=Our Dance
TTITLE7=ソーラン★Dance
TTITLE8=Lost My Sunglass
TTITLE9=Interlude #2
TTITLE10=One More Chance
TTITLE11=お経でポン！
TTITLE12=Meditation
TTITLE13=Love Is The Key
TTITLE14=data track
EXTD=YEAR: 2005
EXTT0=
EXTT1=
EXTT2=
EXTT3=
EXTT4=
EXTT5=
EXTT6=
EXTT7=
EXTT8=
EXTT9=
EXTT10=
EXTT11=
EXTT12=
EXTT13=
EXTT14=
PLAYORDER=
